<svg width="24" height="24" viewBox="0 0 24 24" fill="none" xmlns="http://www.w3.org/2000/svg">
<path fill-rule="evenodd" clip-rule="evenodd" d="M15.8004 15.9463H18.1965V15.6159C17.8214 14.345 16.8682 14.3533 15.6898 14.364C15.4957 14.3664 15.3199 14.3675 15.3095 14.3675H6.35306C6.14731 14.3675 5.98063 14.2159 5.98063 14.0288C5.98063 13.8417 6.14731 13.6901 6.35306 13.6901H15.3095C15.5739 13.6901 15.6299 13.6901 15.6832 13.6889C16.6911 13.6794 17.5714 13.6711 18.1965 14.2077V14.0525C18.1965 13.6735 18.0259 13.33 17.7511 13.0801C17.4764 12.8302 17.0974 12.6751 16.682 12.6751H6.258C5.8413 12.6751 5.46366 12.8302 5.1889 13.0801C4.91414 13.33 4.74355 13.6747 4.74355 14.0525V21.9451C4.74355 22.3241 4.91414 22.6676 5.1889 22.9175C5.46366 23.1674 5.8426 23.3225 6.258 23.3225H16.6807C17.0974 23.3225 17.4751 23.1674 17.7498 22.9175C18.0246 22.6676 18.1952 22.3229 18.1952 21.9451V20.8247H15.7991C15.0764 20.8247 14.4188 20.5559 13.9435 20.1236C13.4682 19.6913 13.1726 19.0932 13.1726 18.4358V18.3328C13.1726 17.6755 13.4682 17.0774 13.9435 16.6451C14.4201 16.2152 15.0764 15.9463 15.8004 15.9463ZM18.94 15.9593C19.2096 15.9961 19.4505 16.1121 19.6341 16.2803C19.8607 16.4864 20 16.7706 20 17.0833V19.6415C20 19.9684 19.8542 20.2645 19.6185 20.4789C19.4375 20.6435 19.2018 20.7608 18.94 20.8058V21.9463C18.94 22.5113 18.6861 23.0253 18.2772 23.3972C17.8683 23.769 17.3032 24 16.682 24H6.258C5.63685 24 5.0717 23.769 4.66281 23.3972C4.25393 23.0265 4 22.5124 4 21.9475V14.0537C4 13.4887 4.25393 12.9747 4.66281 12.6028C5.0717 12.231 5.63685 12 6.258 12H16.6807C17.3019 12 17.867 12.231 18.2759 12.6028C18.6848 12.9747 18.9387 13.4887 18.9387 14.0537V15.9593H18.94ZM15.4775 17.4611C16.0049 17.4611 16.432 17.8496 16.432 18.3293C16.432 18.8089 16.0049 19.1974 15.4775 19.1974C14.9501 19.1974 14.523 18.8089 14.523 18.3293C14.523 17.8496 14.9501 17.4611 15.4775 17.4611Z" fill="#0F172A"/>
<path d="M12 2L12 10" stroke="#0F172A" stroke-linecap="round" stroke-linejoin="round"/>
<path d="M16 6L12 10L8 6" stroke="#0F172A" stroke-linecap="round" stroke-linejoin="round"/>
</svg>
