<svg width="26" height="26" viewBox="0 0 26 26" fill="none" xmlns="http://www.w3.org/2000/svg">
<rect width="24" height="24" transform="translate(0.5)" fill="white"/>
<path fill-rule="evenodd" clip-rule="evenodd" d="M25.0696 13.3217C25.0696 12.4708 24.9933 11.6526 24.8514 10.8672H13.5498V15.5089H20.0079C19.7297 17.0089 18.8843 18.2798 17.6134 19.1307V22.1416H21.4915C23.7606 20.0525 25.0696 16.9762 25.0696 13.3217Z" fill="#4285F4"/>
<path fill-rule="evenodd" clip-rule="evenodd" d="M13.5496 25.049C16.7896 25.049 19.5059 23.9744 21.4913 22.1417L17.6132 19.1309C16.5387 19.8509 15.1642 20.2763 13.5496 20.2763C10.4242 20.2763 7.77882 18.1654 6.8352 15.3291H2.82617V18.4381C4.80069 22.3599 8.85881 25.049 13.5496 25.049Z" fill="#34A853"/>
<path fill-rule="evenodd" clip-rule="evenodd" d="M6.83542 15.3291C6.59543 14.6091 6.45907 13.8401 6.45907 13.0492C6.45907 12.2583 6.59543 11.4892 6.83542 10.7692V7.66016H2.82639C2.01368 9.28013 1.55005 11.1128 1.55005 13.0492C1.55005 14.9855 2.01368 16.8182 2.82639 18.4382L6.83542 15.3291Z" fill="#FBBC05"/>
<path fill-rule="evenodd" clip-rule="evenodd" d="M13.5496 5.82197C15.3114 5.82197 16.8932 6.42742 18.1369 7.61649L21.5786 4.17472C19.5005 2.23839 16.7841 1.04932 13.5496 1.04932C8.85881 1.04932 4.80069 3.73837 2.82617 7.66013L6.8352 10.7692C7.77882 7.93285 10.4242 5.82197 13.5496 5.82197Z" fill="#EA4335"/>
</svg>
