<svg width="25" height="24" viewBox="0 0 25 24" fill="none" xmlns="http://www.w3.org/2000/svg">
<g clip-path="url(#clip0_2073_642)">
<path d="M11.043 12.6729H11.6481L11.534 12.0786C10.9986 9.28952 8.8983 7.61526 6.375 7.61526C3.85718 7.61526 1.75781 9.28989 1.21618 12.0775L1.1005 12.6729H1.707H11.043ZM8.29552 6.84507L7.71542 7.36999L8.43544 7.67599C10.3075 8.47156 11.7041 10.3755 11.8604 13.0254H0.889647C1.04627 10.3806 2.44307 8.47234 4.31336 7.68326L5.03626 7.37827L4.45448 6.85183C3.71597 6.18358 3.275 5.15939 3.275 4.05763C3.275 2.0312 4.7192 0.5 6.375 0.5C8.03579 0.5 9.475 2.03682 9.475 4.05763C9.475 5.1522 9.03433 6.17655 8.29552 6.84507ZM6.375 0.852543C4.71829 0.852543 3.475 2.34485 3.475 4.05763C3.475 5.77041 4.71829 7.26272 6.375 7.26272C8.03171 7.26272 9.275 5.77041 9.275 4.05763C9.275 2.34485 8.03171 0.852543 6.375 0.852543Z" fill="#06102B" stroke="#06102B"/>
<mask id="path-2-inside-1_2073_642" fill="white">
<path fill-rule="evenodd" clip-rule="evenodd" d="M18.3751 17.5899C20.6491 17.5899 22.5511 19.0844 23.0431 21.6475H13.7011C14.1991 19.0844 16.1011 17.5899 18.3691 17.5899M15.9691 13.5322C15.9691 12.0377 17.0431 10.8272 18.3691 10.8272C19.6951 10.8272 20.7691 12.0377 20.7691 13.5322C20.7691 15.0268 19.6951 16.2373 18.3691 16.2373C17.0431 16.2373 15.9691 15.0268 15.9691 13.5322ZM20.6251 16.6904C21.4771 15.9195 21.9691 14.7563 21.9691 13.5322C21.9691 11.2938 20.3611 9.47461 18.3691 9.47461C16.3831 9.47461 14.7691 11.287 14.7691 13.5322C14.7691 14.7631 15.2611 15.9262 16.1131 16.6972C13.9171 17.6304 12.3691 19.923 12.3691 23.0068H24.3691C24.3691 19.923 22.8211 17.6304 20.6251 16.6972"/>
</mask>
<path fill-rule="evenodd" clip-rule="evenodd" d="M18.3751 17.5899C20.6491 17.5899 22.5511 19.0844 23.0431 21.6475H13.7011C14.1991 19.0844 16.1011 17.5899 18.3691 17.5899M15.9691 13.5322C15.9691 12.0377 17.0431 10.8272 18.3691 10.8272C19.6951 10.8272 20.7691 12.0377 20.7691 13.5322C20.7691 15.0268 19.6951 16.2373 18.3691 16.2373C17.0431 16.2373 15.9691 15.0268 15.9691 13.5322ZM20.6251 16.6904C21.4771 15.9195 21.9691 14.7563 21.9691 13.5322C21.9691 11.2938 20.3611 9.47461 18.3691 9.47461C16.3831 9.47461 14.7691 11.287 14.7691 13.5322C14.7691 14.7631 15.2611 15.9262 16.1131 16.6972C13.9171 17.6304 12.3691 19.923 12.3691 23.0068H24.3691C24.3691 19.923 22.8211 17.6304 20.6251 16.6972" fill="#06102B"/>
<path d="M23.0431 21.6475V22.6475H24.2534L24.0252 21.459L23.0431 21.6475ZM13.7011 21.6475L12.7195 21.4568L12.4881 22.6475H13.7011V21.6475ZM16.1131 16.6972L16.5043 17.6175L17.9443 17.0055L16.7841 15.9557L16.1131 16.6972ZM12.3691 23.0068H11.3691V24.0068H12.3691V23.0068ZM24.3691 23.0068V24.0068H25.3691V23.0068H24.3691ZM18.3751 18.5899C20.1505 18.5899 21.6559 19.725 22.0611 21.836L24.0252 21.459C23.4464 18.4438 21.1477 16.5899 18.3751 16.5899V18.5899ZM23.0431 20.6475H13.7011V22.6475H23.0431V20.6475ZM14.6828 21.8382C15.0935 19.7243 16.6008 18.5899 18.3691 18.5899V16.5899C15.6015 16.5899 13.3048 18.4446 12.7195 21.4568L14.6828 21.8382ZM16.9691 13.5322C16.9691 12.4741 17.7046 11.8272 18.3691 11.8272V9.82715C16.3817 9.82715 14.9691 11.6012 14.9691 13.5322H16.9691ZM18.3691 11.8272C19.0337 11.8272 19.7691 12.4741 19.7691 13.5322H21.7691C21.7691 11.6012 20.3566 9.82715 18.3691 9.82715V11.8272ZM19.7691 13.5322C19.7691 14.5904 19.0337 15.2373 18.3691 15.2373V17.2373C20.3566 17.2373 21.7691 15.4632 21.7691 13.5322H19.7691ZM18.3691 15.2373C17.7046 15.2373 16.9691 14.5904 16.9691 13.5322H14.9691C14.9691 15.4632 16.3817 17.2373 18.3691 17.2373V15.2373ZM21.2961 17.4319C22.3745 16.4561 22.9691 15.0152 22.9691 13.5322H20.9691C20.9691 14.4973 20.5798 15.3828 19.9542 15.9489L21.2961 17.4319ZM22.9691 13.5322C22.9691 10.8585 21.0236 8.47461 18.3691 8.47461V10.4746C19.6987 10.4746 20.9691 11.7291 20.9691 13.5322H22.9691ZM18.3691 8.47461C15.7227 8.47461 13.7691 10.8494 13.7691 13.5322H15.7691C15.7691 11.7246 17.0435 10.4746 18.3691 10.4746V8.47461ZM13.7691 13.5322C13.7691 15.0212 14.3632 16.4624 15.4422 17.4387L16.7841 15.9557C16.1591 15.3901 15.7691 14.505 15.7691 13.5322H13.7691ZM15.722 15.7769C13.1096 16.8871 11.3691 19.5759 11.3691 23.0068H13.3691C13.3691 20.2702 14.7247 18.3738 16.5043 17.6175L15.722 15.7769ZM12.3691 24.0068H24.3691V22.0068H12.3691V24.0068ZM25.3691 23.0068C25.3691 19.5759 23.6287 16.8871 21.0163 15.7769L20.234 17.6175C22.0136 18.3738 23.3691 20.2702 23.3691 23.0068H25.3691Z" fill="#06102B" mask="url(#path-2-inside-1_2073_642)"/>
<path d="M19.2091 8.39268C19.1491 8.39268 19.0831 8.37915 19.0291 8.3521L16.5151 7.101C16.2871 6.98603 16.1851 6.68847 16.2871 6.43149C16.3891 6.17451 16.6531 6.05954 16.8811 6.17451L18.9811 7.22273L19.9111 4.85578C20.0131 4.59879 20.2771 4.48383 20.5051 4.59879C20.7331 4.71376 20.8351 5.01132 20.7331 5.2683L19.6231 8.10188C19.5751 8.22361 19.4851 8.31829 19.3711 8.37239C19.3171 8.39268 19.2631 8.4062 19.2091 8.4062V8.39268Z" fill="#06102B"/>
<path d="M18.681 7.54728C18.537 7.54728 18.393 7.46613 18.309 7.32411C17.835 6.53288 16.503 4.55816 14.301 3.21914C13.335 2.63079 12.321 2.24531 11.367 2.09653C11.121 2.05596 10.947 1.80574 10.983 1.52847C11.019 1.25119 11.247 1.05508 11.487 1.09565C12.549 1.25796 13.665 1.68401 14.727 2.32647C17.109 3.77369 18.549 5.91071 19.059 6.76281C19.197 6.99274 19.143 7.31059 18.939 7.46613C18.861 7.527 18.777 7.55405 18.687 7.55405L18.681 7.54728Z" fill="#06102B"/>
<path d="M4.221 18.0566C4.161 18.0566 4.101 18.0431 4.041 18.016C3.813 17.9011 3.711 17.6035 3.813 17.3465L4.761 14.939C4.809 14.8173 4.899 14.7226 5.013 14.6685C5.127 14.6212 5.247 14.6212 5.355 14.6753L7.491 15.7438C7.719 15.8587 7.821 16.1563 7.719 16.4133C7.617 16.6703 7.353 16.7852 7.125 16.6703L5.397 15.8114L4.635 17.7591C4.563 17.9484 4.395 18.0634 4.221 18.0634V18.0566Z" fill="#06102B"/>
<path d="M11.799 21.0052C11.799 21.0052 11.757 21.0052 11.739 21.0052C10.827 20.8632 9.86698 20.498 8.96098 19.9503C6.92098 18.7127 5.68498 16.88 5.25298 16.1496C5.11498 15.9197 5.16898 15.6018 5.37298 15.4463C5.57698 15.2907 5.85898 15.3516 5.99698 15.5815C6.39298 16.2511 7.52098 17.9214 9.38698 19.0508C10.203 19.5445 11.055 19.8691 11.859 19.9976C12.105 20.0382 12.279 20.2884 12.243 20.5657C12.213 20.8227 12.021 21.0052 11.799 21.0052Z" fill="#06102B"/>
</g>
<defs>
<clipPath id="clip0_2073_642">
<rect width="24" height="24" fill="white" transform="translate(0.375)"/>
</clipPath>
</defs>
</svg>
