<svg width="25" height="24" viewBox="0 0 25 24" fill="none" xmlns="http://www.w3.org/2000/svg">
<g clip-path="url(#clip0_2073_553)">
<path d="M17.0894 12.6648C16.9104 12.363 16.8207 11.8848 16.8207 11.2294V6.30214C17.4384 6.10714 18.1045 6.00037 18.7995 6C19.5772 5.99963 20.3181 6.12975 20.9946 6.36701V11.2294C20.9946 11.8848 20.9049 12.363 20.7259 12.6648C20.4469 13.1994 19.8425 13.4667 18.9115 13.4667C17.9805 13.4667 17.3684 13.1994 17.0894 12.6648Z" fill="#0F172A"/>
<path d="M24.125 10.4775C24.1246 13.2908 21.7889 15.5973 18.9375 15.6C16.0235 15.6026 13.691 13.319 13.6902 10.462C13.6902 9.16026 14.1854 7.97108 15.0011 7.06665V10.7076C15.0011 11.7473 15.165 12.5567 15.4928 13.1365C16.1082 14.1983 17.276 14.7294 18.9963 14.7294C20.7165 14.7294 21.8821 14.1983 22.4929 13.1365C22.8207 12.5567 22.9846 11.7473 22.9846 10.7076V7.26662C23.699 8.1452 24.125 9.26062 24.125 10.4775Z" fill="#0F172A"/>
<path d="M3.94328 8.74762C4.04071 8.85172 4.09836 8.91083 4.15235 8.97217C4.51163 9.37925 4.51325 9.91645 4.1966 10.3518C3.87955 10.7875 3.58726 11.2392 3.29618 11.6905C3.03799 12.0905 2.64015 12.3247 2.18872 12.4902C1.94636 12.579 1.68776 12.63 1.41333 12.7043C1.45353 13.0017 1.49534 13.3069 1.53594 13.6125C1.59724 14.0731 1.65975 14.5334 1.71781 14.994C1.73729 15.149 1.79453 15.223 1.99467 15.2301C2.7526 15.2572 3.3928 15.5535 3.9173 16.0416C4.43125 16.5197 4.96874 16.967 5.58377 17.3339C6.02018 17.5945 6.24386 17.9544 6.26538 18.4473C6.28486 18.896 6.38311 19.3422 6.45009 19.8169C6.76593 19.8169 7.06796 19.8113 7.37 19.8184C7.79382 19.8277 7.78124 19.8281 7.91967 19.4526C8.08124 19.0135 8.25256 18.5763 8.44701 18.1484C8.66461 17.6692 9.28735 17.4711 9.8492 17.6395C10.5535 17.851 11.2587 18.0752 11.9817 18.2153C13.6543 18.5392 15.3264 18.4548 16.984 18.0882C17.8003 17.9075 18.3939 18.2239 18.6216 18.9641C18.691 19.1901 18.7649 19.4154 18.8234 19.644C18.8546 19.7663 18.9062 19.8128 19.0552 19.8061C19.4461 19.7887 19.8387 19.7853 20.23 19.792C20.3709 19.7942 20.4265 19.7641 20.4606 19.6321C20.707 18.6808 20.9973 17.7413 21.4191 16.8406C21.5202 16.6249 21.6338 16.4138 21.7398 16.2C21.821 16.0357 21.9509 15.9335 22.151 15.9071C22.2578 15.8929 22.3625 15.8665 22.4685 15.848C22.6686 15.813 22.8485 15.845 22.9768 16.0019C23.1071 16.1613 23.1128 16.3327 23.0109 16.5075C22.5278 17.3358 22.1912 18.2153 21.9265 19.1191C21.8181 19.4894 21.7203 19.8619 21.6188 20.234C21.4719 20.7727 21.1024 21.0047 20.4935 20.9839C19.9544 20.9657 19.4128 20.9671 18.8737 20.9895C18.2173 21.0166 17.8081 20.753 17.6489 20.1653C17.5645 19.8541 17.4695 19.5451 17.3721 19.2117C14.7155 19.805 12.1116 19.6983 9.53499 18.7946C9.38316 19.1901 9.23579 19.5734 9.08884 19.9567C9.04174 20.079 9.00399 20.205 8.94756 20.3236C8.74377 20.7504 8.37962 20.9861 7.87542 20.9958C7.32209 21.0066 6.76715 20.9961 6.21463 20.9701C5.695 20.9456 5.28823 20.5723 5.20623 20.0753C5.11935 19.5492 5.04506 19.0217 4.95372 18.4964C4.93992 18.4172 4.88349 18.3194 4.81326 18.2771C4.18808 17.9016 3.62663 17.4588 3.11472 16.9618C2.73596 16.5945 2.29021 16.3829 1.71943 16.3885C1.15149 16.3944 0.828752 16.1483 0.616434 15.6792C0.417107 15.2394 0.41183 14.7739 0.339569 14.3174C0.263248 13.8337 0.210067 13.3475 0.140242 12.8631C0.0395637 12.1645 0.442683 11.6552 1.20021 11.5228C1.37193 11.4927 1.54324 11.4522 1.70806 11.3998C1.96504 11.318 2.14285 11.1682 2.27519 10.934C2.51917 10.502 2.81187 10.0934 3.09198 9.66328C2.85896 9.41011 2.59509 9.1376 2.34786 8.85246C1.9829 8.43088 2.10022 8.00372 2.63609 7.7855C3.08508 7.60296 3.56736 7.57768 4.0464 7.57768C4.70162 7.57731 5.35643 7.60222 6.01165 7.62118C6.23209 7.6275 6.43751 7.60742 6.63074 7.49255C7.88557 6.74604 9.28086 6.36796 10.7508 6.19026C11.745 6.0698 12.7441 6.04378 13.7448 6.08467C14.2819 6.10661 14.5774 6.57466 14.3156 6.97579C14.1771 7.18807 13.9632 7.25648 13.6985 7.26168C12.835 7.27841 11.9679 7.26949 11.1093 7.34161C9.73512 7.45723 8.43321 7.80929 7.26567 8.51453C6.87797 8.74874 6.44197 8.80636 5.98567 8.79038C5.40515 8.7703 4.82422 8.76026 4.24329 8.74688C4.16413 8.74502 4.08456 8.74688 3.94369 8.74688L3.94328 8.74762Z" fill="#0F172A"/>
<path d="M6.37956 12.4668C5.80411 12.4634 5.34204 11.9922 5.34241 11.4085C5.34241 10.8092 5.80411 10.3327 6.3829 10.3335C6.97503 10.3343 7.43451 10.8119 7.42932 11.4215C7.4245 12.0044 6.9565 12.4699 6.37956 12.4664V12.4668Z" fill="black"/>
</g>
<defs>
<clipPath id="clip0_2073_553">
<rect width="24" height="24" fill="white" transform="translate(0.125)"/>
</clipPath>
</defs>
</svg>
