<svg width="25" height="24" viewBox="0 0 25 24" fill="none" xmlns="http://www.w3.org/2000/svg">
<g clip-path="url(#clip0_2077_308)">
<path d="M22.1697 9.74832H22.6697V9.24832V8.72513V8.65655L22.6512 8.5905C22.334 7.45579 21.7383 6.81656 20.919 6.50569C20.1811 6.22573 19.3002 6.23431 18.4628 6.24245C18.4435 6.24264 18.4242 6.24283 18.4049 6.24301L18.4032 6.24303C18.2585 6.2449 18.1205 6.2463 18.0167 6.24723L17.8903 6.24828L17.8532 6.24854C17.8432 6.2486 17.8393 6.24862 17.8393 6.24862H4.40458C4.38158 6.24862 4.36539 6.24008 4.35581 6.23088C4.34659 6.22203 4.34594 6.21574 4.34594 6.2123C4.34594 6.20885 4.34659 6.20257 4.35581 6.19371C4.36539 6.18451 4.38158 6.17598 4.40458 6.17598H17.8393H17.8614C18.2301 6.17598 18.3231 6.17598 18.4081 6.17404C19.1734 6.16646 19.8357 6.16137 20.4217 6.25441C20.9969 6.34574 21.4595 6.52668 21.834 6.86599L22.6697 7.62319V6.49546V6.2498C22.6697 5.50324 22.3506 4.8321 21.848 4.34954C21.3454 3.86707 20.6539 3.56889 19.898 3.56889H4.26199C3.50393 3.56889 2.81446 3.86723 2.31207 4.34954C1.80926 4.83227 1.49033 5.50535 1.49033 6.2498V18.7464C1.49033 19.493 1.80944 20.1642 2.31207 20.6467C2.81462 21.1292 3.50611 21.4274 4.26199 21.4274H19.8961C20.6541 21.4274 21.3436 21.129 21.846 20.6467C22.3488 20.164 22.6677 19.4909 22.6677 18.7464V16.9725V16.4725H22.1677H18.5737C17.6218 16.4725 16.7587 16.0989 16.1365 15.5016C15.5147 14.9047 15.1339 14.0852 15.1339 13.1901V13.0269C15.1339 12.1322 15.5144 11.313 16.1358 10.7161C16.7606 10.1216 17.6223 9.74832 18.5757 9.74832H22.1697ZM23.9786 10.1366L23.9799 10.1378C24.2278 10.3759 24.375 10.6981 24.375 11.0486V15.0991C24.375 15.4717 24.2183 15.8128 23.9564 16.0642C23.755 16.2576 23.4906 16.397 23.1957 16.4505L22.785 16.525V16.9425V18.7483C22.785 19.4972 22.4667 20.1835 21.9445 20.6848C21.422 21.1864 20.6976 21.5 19.898 21.5H4.26199C3.46247 21.5 2.73798 21.1864 2.2155 20.6848L2.21492 20.6843C1.69338 20.1852 1.375 19.4992 1.375 18.7502V6.25168C1.375 5.50282 1.69331 4.81651 2.2155 4.31519C2.73798 3.81357 3.46247 3.5 4.26199 3.5H19.8961C20.6956 3.5 21.4201 3.81357 21.9426 4.31519C22.4648 4.81651 22.7831 5.50282 22.7831 6.25168V9.26895V9.76895H23.2466C23.5316 9.81677 23.7848 9.94923 23.9786 10.1366ZM20.023 13.0213C20.023 11.9667 19.1391 11.1468 18.0912 11.1468C17.0434 11.1468 16.1595 11.9667 16.1595 13.0213C16.1595 14.076 17.0434 14.8959 18.0912 14.8959C19.1391 14.8959 20.023 14.076 20.023 13.0213Z" fill="#0F172A" stroke="#06102B"/>
</g>
<defs>
<clipPath id="clip0_2077_308">
<rect width="24" height="24" fill="white" transform="translate(0.875)"/>
</clipPath>
</defs>
</svg>
